<svg xmlns="http://www.w3.org/2000/svg" viewBox="0 0 1080 1080"><defs><style>.cls-1{isolation:isolate;}.cls-2{fill:#ccddea;}.cls-3{font-size:37.36px;font-family:Comfortaa-Bold, Comfortaa;font-weight:700;}.cls-16,.cls-3{fill:#082d4a;}.cls-4{letter-spacing:-0.02em;}.cls-5{letter-spacing:-0.02em;}.cls-6{fill:#2e3552;}.cls-7{fill:#e8b679;}.cls-8{fill:#fcf7ea;}.cls-9{fill:#354546;}.cls-10{fill:#ffe1c0;}.cls-11{fill:#ff6000;}.cls-12{mix-blend-mode:multiply;}.cls-13{fill:#fff;}.cls-14{fill:#b59d63;}.cls-15{fill:#eab99a;}.cls-17{fill:#f5c4a5;}.cls-18{fill:#606060;}.cls-19{fill:#404040;}.cls-20{fill:#025497;}.cls-21{fill:#062238;}</style></defs><g class="cls-1"><g id="Layer_1" data-name="Layer 1"><path class="cls-2" d="M815.18,735.55s77.07-82.75,13-172.33c-56.82-79.49-123.07-74.06-171.67-41.8-20.7,13.74-80.38,1.69-131.18-79.19C456.1,331.93,216,398.82,259.76,568.53c21.19,82.12-64.48,85.11-20.83,167.2Z"/><text class="cls-3" transform="translate(438.24 804.28)"><tspan class="cls-4">A</tspan><tspan x="25.51" y="0">dmin F</tspan><tspan class="cls-5" x="157.87" y="0">e</tspan><tspan x="180.32" y="0">e</tspan></text><rect class="cls-6" x="229.31" y="735.07" width="621.39" height="1.65" rx="0.57"/><rect class="cls-7" x="556.68" y="477.23" width="154.73" height="255.27"/><rect class="cls-8" x="563.51" y="695.94" width="66.43" height="29.89"/><rect class="cls-9" x="567.1" y="698.15" width="3.93" height="25.47"/><rect class="cls-9" x="573.42" y="698.15" width="1.32" height="25.47"/><rect class="cls-9" x="616.49" y="698.15" width="1.32" height="25.47"/><rect class="cls-9" x="579.75" y="698.15" width="3.93" height="25.47"/><rect class="cls-9" x="586.07" y="698.15" width="1.97" height="25.47"/><rect class="cls-9" x="576.41" y="698.15" width="1.96" height="25.47"/><rect class="cls-9" x="589.75" y="698.15" width="6.57" height="25.47"/><rect class="cls-9" x="611.25" y="698.15" width="3.93" height="25.47"/><rect class="cls-9" x="602.28" y="698.15" width="3.93" height="25.47"/><rect class="cls-9" x="598.71" y="698.15" width="1.97" height="25.47"/><rect class="cls-9" x="607.46" y="698.15" width="1.97" height="25.47"/><rect class="cls-9" x="618.78" y="698.15" width="6.48" height="25.47"/><rect class="cls-10" x="634.04" y="477.23" width="4.84" height="255.27"/><rect class="cls-10" x="556.68" y="477.23" width="154.73" height="21.87"/><rect class="cls-11" x="655.74" y="702.72" width="4.11" height="16.49"/><polygon class="cls-11" points="651.64 704.52 657.79 693.86 663.94 704.52 651.64 704.52"/><rect class="cls-11" x="669.34" y="702.72" width="4.11" height="16.49"/><polygon class="cls-11" points="665.25 704.52 671.4 693.86 677.55 704.52 665.25 704.52"/><rect class="cls-11" x="651.64" y="721.04" width="25.9" height="2.58"/><g class="cls-12"><rect class="cls-11" x="581.71" y="477.23" width="17" height="41.96"/></g><rect class="cls-11" x="666.2" y="477.23" width="17" height="41.96"/><rect class="cls-7" x="368.59" y="477.17" width="155.71" height="82.07"/><rect class="cls-13" x="375.47" y="522.45" width="66.85" height="30.08"/><rect class="cls-9" x="379.08" y="524.68" width="3.96" height="25.63"/><rect class="cls-9" x="385.44" y="524.68" width="1.33" height="25.63"/><rect class="cls-9" x="428.78" y="524.68" width="1.33" height="25.63"/><rect class="cls-9" x="391.8" y="524.68" width="3.96" height="25.63"/><rect class="cls-9" x="398.17" y="524.68" width="1.98" height="25.63"/><rect class="cls-9" x="388.44" y="524.68" width="1.98" height="25.63"/><rect class="cls-9" x="401.87" y="524.68" width="6.62" height="25.63"/><rect class="cls-9" x="423.51" y="524.68" width="3.96" height="25.63"/><rect class="cls-9" x="414.48" y="524.68" width="3.96" height="25.63"/><rect class="cls-9" x="410.89" y="524.68" width="1.98" height="25.63"/><rect class="cls-9" x="419.7" y="524.68" width="1.98" height="25.63"/><rect class="cls-9" x="431.08" y="524.68" width="6.52" height="25.63"/><rect class="cls-10" x="446.45" y="477.17" width="4.86" height="82.07"/><rect class="cls-10" x="368.59" y="477.17" width="155.71" height="22.01"/><rect class="cls-11" x="468.28" y="529.27" width="4.14" height="16.6"/><polygon class="cls-11" points="464.16 531.08 470.35 520.36 476.54 531.08 464.16 531.08"/><rect class="cls-14" x="481.97" y="529.27" width="4.14" height="16.6"/><polygon class="cls-14" points="477.85 531.08 484.04 520.36 490.23 531.08 477.85 531.08"/><rect class="cls-11" x="464.16" y="547.71" width="26.07" height="2.6"/><rect class="cls-11" x="393.78" y="477.17" width="17.11" height="42.23"/><g class="cls-12"><rect class="cls-14" x="478.81" y="477.17" width="17.11" height="42.23"/></g><rect class="cls-7" x="345.33" y="561.83" width="154.72" height="173.24"/><rect class="cls-13" x="352.17" y="698.52" width="66.43" height="29.89"/><rect class="cls-9" x="355.75" y="700.73" width="3.93" height="25.47"/><rect class="cls-9" x="362.08" y="700.73" width="1.32" height="25.47"/><rect class="cls-9" x="405.15" y="700.73" width="1.32" height="25.47"/><rect class="cls-9" x="368.4" y="700.73" width="3.93" height="25.47"/><rect class="cls-9" x="374.72" y="700.73" width="1.96" height="25.47"/><rect class="cls-9" x="365.06" y="700.73" width="1.96" height="25.47"/><rect class="cls-9" x="378.4" y="700.73" width="6.57" height="25.47"/><rect class="cls-9" x="399.91" y="700.73" width="3.93" height="25.47"/><rect class="cls-9" x="390.93" y="700.73" width="3.93" height="25.47"/><rect class="cls-9" x="387.37" y="700.73" width="1.96" height="25.47"/><rect class="cls-9" x="396.12" y="700.73" width="1.96" height="25.47"/><rect class="cls-9" x="407.43" y="700.73" width="6.48" height="25.47"/><rect class="cls-10" x="422.69" y="561.83" width="4.84" height="173.24"/><rect class="cls-10" x="345.33" y="561.83" width="154.72" height="21.87"/><rect class="cls-14" x="444.39" y="705.29" width="4.11" height="16.5"/><polygon class="cls-14" points="440.29 707.09 446.45 696.44 452.6 707.09 440.29 707.09"/><rect class="cls-14" x="457.99" y="705.29" width="4.11" height="16.5"/><polygon class="cls-14" points="453.9 707.09 460.05 696.44 466.2 707.09 453.9 707.09"/><rect class="cls-14" x="440.29" y="723.61" width="25.91" height="2.58"/><g class="cls-12"><rect class="cls-11" x="370.36" y="561.83" width="17" height="41.96"/></g><g class="cls-12"><rect class="cls-14" x="454.85" y="561.83" width="17" height="41.96"/></g><path class="cls-15" d="M400.75,682.62c.07,0,.14.07.21.06,43.11,11.06,81.14,21.39,110.85,29.32,5.17,1.31,10.12,2.63,14.78,3.82L527,733.1c-4.78-.32-9.71-.77-14.72-1.3C480,728.35,444.17,720.36,406.5,710Z"/><path class="cls-15" d="M660.64,682.62c-.07,0-.15.07-.22.06-43.11,11.06-81.13,21.39-110.85,29.32-5.17,1.31-10.12,2.63-14.78,3.82l-.44,17.28c4.78-.32,9.72-.77,14.72-1.3,32.28-3.45,68.15-11.44,105.81-21.77Z"/><path class="cls-16" d="M604,471.41c0,48.09-74.07,165.66-74.07,165.66S458.44,519.5,458.44,471.41s32.58-87.09,72.77-87.09S604,423.31,604,471.41Z"/><path class="cls-15" d="M471.65,583.13c-.51,1.53-6,17.21-13.63,37.56-.6,1.54-1.2,3.15-1.79,4.77-2.22,5.88-4.52,12-6.9,18.32.08,0,0,.08,0,.08-.6,1.62-1.28,3.24-1.88,4.94-1.87,4.77-3.74,9.63-5.62,14.48l-.51,1.37c-4.85,12.43-4.35,24.62-5.28,35A15,15,0,0,1,421,713.2h-.08c-12.53-8.18-15.59-7.75-18.74-24.19-.68-3.49-2-6.9-1.11-10.31,11-44.38,19.93-67,37.74-107.33a6.27,6.27,0,0,1,.42-1.19,17.19,17.19,0,0,1,19.6-8.69,8.72,8.72,0,0,1,1.36.34,15.69,15.69,0,0,1,4.34,2A16.9,16.9,0,0,1,471.65,583.13Z"/><path class="cls-15" d="M659.48,688c-3.15,16.44-6.13,16-18.74,24.19h-.09a15,15,0,0,1-15.07-13.54c-1-10.39-.43-22.58-5.29-35l-.42-1.37c-1.87-4.85-3.84-9.79-5.71-14.65-3.75-9.71-7.33-19.25-10.48-27.94-7.58-20.36-13.12-36-13.63-37.56a17.2,17.2,0,0,1,11.42-21.3,8.35,8.35,0,0,1,1.44-.34,17.06,17.06,0,0,1,19.51,8.69c.17.42.34.77.51,1.19,17.72,40.29,26.67,63,37.66,107.33C661.44,681.11,660.16,684.52,659.48,688Z"/><path class="cls-15" d="M610.41,621.29c4.52,4.68,7.16,10.14,7.16,16a21,21,0,0,1-3.41,11.33c-3.49,5.71-9.54,10.48-17.38,13.89a2.24,2.24,0,0,1-.59.34,35.53,35.53,0,0,1-4.52,1.7,7.71,7.71,0,0,1-1.28.43,3,3,0,0,0-.25.85v.09c-7.67,19.08-12.61,36.28-14.06,53.24H485.53c-1.45-16.7-6.22-33.65-13.71-52.39a15.62,15.62,0,0,0-.68-1.79,39.65,39.65,0,0,1-5.37-2,54.73,54.73,0,0,1-9.11-4.94,32.79,32.79,0,0,1-9.21-9.29A21.67,21.67,0,0,1,444,637.3c0-5.87,2.64-11.33,7.16-16l-12-44.3c0-8.26,7.59-15,17.13-15.5h21.13c7.57-.34,13.8-1.71,18.82-4a29.72,29.72,0,0,0,8.94-6.14,22.84,22.84,0,0,0,3-3.49c3.76-5.2,5.8-11.76,6.74-19.25h31.85c.94,7.49,3,14,6.73,19.25a22.3,22.3,0,0,0,2.9,3.49,30.17,30.17,0,0,0,9,6.14c5,2.29,11.25,3.66,18.82,4h20c10.06,0,18.23,7,18.23,15.5Z"/><path class="cls-17" d="M609.9,641.48c0,8.52-5.19,16.1-13.12,21a2.24,2.24,0,0,1-.59.34,37,37,0,0,1-4.43,2.3,14.73,14.73,0,0,1-1.62.68v.09A47.14,47.14,0,0,1,574,668.74c-19.93,0-36-12.18-36-27.26s16.1-27.26,36-27.26A44.53,44.53,0,0,1,589.63,617C601.64,621.37,609.9,630.74,609.9,641.48Z"/><path class="cls-17" d="M521.22,641.48c0,15.08-16.18,27.26-36,27.26a45.25,45.25,0,0,1-13.37-2,32.32,32.32,0,0,1-6.05-2.3,34.58,34.58,0,0,1-9.11-6.39,24.25,24.25,0,0,1-7.33-14.23s.08-.08,0-.08a19.74,19.74,0,0,1-.09-2.3,22.83,22.83,0,0,1,7-16,32.92,32.92,0,0,1,11.58-7.92,47.23,47.23,0,0,1,17.38-3.32C505,614.22,521.22,626.49,521.22,641.48Z"/><path class="cls-15" d="M575.68,465.05c0,32.15-19.73,71-44.29,71a16.87,16.87,0,0,1-3.36-.29c-23-3.29-41.29-40-41.29-70.74s18.05-55.91,41.07-58.17c1.1-.07,2.2-.15,3.36-.15C555.73,406.73,575.68,432.82,575.68,465.05Z"/><path class="cls-17" d="M569,465.05c0,30.69-18,67.45-40.93,70.74-23-3.29-41.29-40-41.29-70.74a19,19,0,0,1,.15-2.92c.73-21.42,10.31-39.83,24-49a36.85,36.85,0,0,1,12.35-5.48l.3-.07a.45.45,0,0,1,.29-.07,33.74,33.74,0,0,1,3.94-.66,36.08,36.08,0,0,1,8.33,1.9c16.74,6,29.53,24.33,32.23,47.13A74.89,74.89,0,0,1,569,465.05Z"/><path class="cls-16" d="M482,423.05s8.5,20.1,44.75,25.58,43.55,21.92,47.21,32.88c0,0,20.09-47.5-10.35-65.77S495.38,392.6,482,423.05Z"/><path class="cls-18" d="M518,512.8c-32.64,0-34.85-30.79-34.86-31.1l4.25-.26c.07,1.11,2,27.1,30.61,27.1Z"/><path class="cls-18" d="M485.23,493.47h0a3.49,3.49,0,0,1-3.49-3.48V477.71a3.5,3.5,0,0,1,3.49-3.49h0a3.5,3.5,0,0,1,3.49,3.49V490A3.49,3.49,0,0,1,485.23,493.47Z"/><rect class="cls-19" x="517.73" y="504.18" width="6.98" height="12.99" rx="2.87" transform="translate(10.55 1031.9) rotate(-90)"/><path class="cls-20" d="M614.16,648.63c1.87,4.86,3.84,9.8,5.71,14.65l.42,1.37a60.9,60.9,0,0,1,3.16,11.55c6.23-1.71,12.36-3.66,18-6.85,5-2.83,9.48-6.39,14.21-9.58-9-32.74-17.71-54.27-32.72-88.4-.17-.42-.34-.77-.51-1.19a17.07,17.07,0,0,0-19.51-8.69H584.17c-7.57-.34-13.79-1.71-18.82-4l-34.59,31.77-34.58-31.77c-5,2.29-11.25,3.66-18.82,4H458.79a17.19,17.19,0,0,0-19.6,8.69,6.27,6.27,0,0,0-.42,1.19c-15.46,35-24.24,56.69-33.48,90.84,9.08,8.47,20.73,12.42,32.46,16.35a63.45,63.45,0,0,1,3.57-13.91l.51-1.37c1.88-4.85,3.75-9.71,5.62-14.48a32.79,32.79,0,0,0,9.21,9.29,34.58,34.58,0,0,0,9.11,6.39,32.32,32.32,0,0,0,6.05,2.3c7.49,18.74,12.26,35.69,13.71,52.39h90.55c1.45-17,6.39-34.16,14.06-53.24v-.09a14.73,14.73,0,0,0,1.62-.68,37,37,0,0,0,4.43-2.3,2.24,2.24,0,0,0,.59-.34C604.62,659.11,610.67,654.34,614.16,648.63Z"/><path class="cls-21" d="M642,735.56H420.39a4,4,0,0,1-3.94-3.94h0a4,4,0,0,1,3.94-3.94H642a4,4,0,0,1,3.94,3.94h0A4,4,0,0,1,642,735.56Z"/><rect class="cls-16" x="430.29" y="619.18" width="199.24" height="116.97" rx="7.89"/><path class="cls-21" d="M540,670.15A12.14,12.14,0,1,1,527.85,658,12.14,12.14,0,0,1,540,670.15Z"/></g></g></svg>