<svg id="Layer_1" data-name="Layer 1" xmlns="http://www.w3.org/2000/svg" viewBox="0 0 1080 1080"><defs><style>.cls-1{fill:#ccddea;}.cls-2,.cls-9{fill:#082d4a;}.cls-3{fill:#025497;}.cls-4{fill:#eea886;}.cls-5{fill:#ce4913;}.cls-6{fill:#ff6000;}.cls-7{fill:#d98b52;}.cls-8{fill:#a77860;}.cls-9{font-size:37.36px;font-family:Comfortaa-Bold, Comfortaa;font-weight:700;}.cls-10{letter-spacing:-0.04em;}.cls-11{fill:#2e3552;}</style></defs><path class="cls-1" d="M798.17,735.57s72.3-77.64,12.22-161.69c-53.3-74.57-115.45-69.47-161-39.21-19.42,12.89-75.41,1.59-123.06-74.29-65-103.49-290.27-40.72-249.19,118.49,19.87,77-60.5,79.84-19.55,156.86Z"/><path class="cls-2" d="M699.62,736.25H641.7c-.8-5-1.51-10-2.14-15v0c-3.82-30.19-4.79-57.77-4.79-57.77s-16.9-77.4,31.94-82.17c0,0,13.09,4.1,13.86,9.47,2.94,20.69,9.68,65.42,10,76C690.7,672.24,695.84,709.18,699.62,736.25Z"/><path class="cls-3" d="M668.16,583q-1.06,31.81-3.76,68.25s-2.43,39.67-3.27,85H455.24c-4.78-22.35-10.14-42.15-10.81-44.63,0,0,0-.06,0-.08s0-.06,0-.06v-.11s-4.62,22.3-8.32,44.88H386.2c6.17-49.58,21.27-159.52,29.25-165.23,6.8-4.87,49.45-22,71.59-30.37,10.23-3.9,18-6.61,19.61-6.72,5.06-.31,67.48,5.67,67.48,5.67s8.94,3.07,18.08,7.27c15.62,7.16,39.94,18.35,57.39,26.67C655.25,576.23,662.3,579.86,668.16,583Z"/><path class="cls-4" d="M507,533.81c4.58,42.05,51.27,42.05,51.27,42.05S577.58,559,577,546.44c0-.27,0-.56-.07-.82-.29-2.3-2.9-5.16-3.17-9.78,0-.63-.05-1.27-.07-1.91s0-1.25,0-1.87c0-3.2.2-6.35.38-8.55.07-.77.13-1.43.19-1.94.07-.78.13-1.22.13-1.22s-7.54-7.93-17.09-17.38c-16.72-16.53-39.7-37.7-39.74-29.29a7.91,7.91,0,0,0,.2,1.6C521.76,494.24,507,533.81,507,533.81Z"/><path class="cls-5" d="M538.82,558.56l19.44,17.3s-22.44-1.49-26.63-5.23Z"/><path class="cls-2" d="M649.6,573.54c-11.8-5.61-26.78-12.56-40.05-18.69-6.32-2.94-12.28-5.67-17.34-8l-8-3.42c.45,1.07,15,36.08,26,112.85,2.82,19.66,7.21,48.15,11.51,80h41C664.93,691.1,666,652,666,652c1.83-24.74,2.88-47.88,3.57-69.43C663.63,580,655.88,576.52,649.6,573.54Z"/><path class="cls-2" d="M541.2,736.25H452c-1.87-15.67-3.89-29.42-5.74-35.83,0,0-3.88,15.9-7.43,35.83h-58.4c6.2-54.85,18.86-158.47,26.42-163.89,5.75-4.11,48.38-19.23,69.28-27.46,3.82-1.52,7.54-2.94,11-4.25,4.43,4.94,51.47,92,55.14,162.69C542.6,711.47,542.14,723,541.2,736.25Z"/><path class="cls-6" d="M579.5,561.61s1.66,23.88-18.54,24.44-36.23-18.84-36.23-18.84l33.53,8.65,20.4-17.3Z"/><path class="cls-6" d="M509.68,525.94s19.14,24.57,29.14,32.62l-16.38,27.49L494.18,538Z"/><path class="cls-5" d="M575.54,563.07l-17.28,12.79s15.18-27.69,15.48-40Z"/><polygon class="cls-6" points="573.74 535.84 584.83 543.68 597.2 580.57 575.54 563.07 573.74 535.84"/><path class="cls-4" d="M628.72,412.74S640.91,442.41,633,446c-6.58,3,4,31.92,5.28,36.61s-12.05,6.59-15.12,9.2-15,37.39-25.8,37.34-57.28-21.89-69-36.92-16-77.84-4.48-102.93S607.15,360.89,628.72,412.74Z"/><path class="cls-7" d="M631.1,419.14S649.75,390.45,624,365s-81.63,8.58-87.63,9.48-41.12,8.39-29.43,61.84c10.4,47.59,11.39,48.83,11.39,48.83s14-25.16,20.49-28.93c10.2-5.88,30.81-2.05,30.81-2.05s-7.14-27.33,8.73-29.43S616.06,411.68,631.1,419.14Z"/><path class="cls-4" d="M554.77,437.39c-1-3.75-3.77-19.71-18-12s4.26,39.19,6.54,39.81S563.06,469,554.77,437.39Z"/><path class="cls-8" d="M530.18,494.34c.32.81,10.93,26.58,43.48,39.59,0-.62,0-1.25,0-1.87,0-3.2.2-6.35.38-8.55.07-.77.13-1.43.19-1.94C574.22,521.57,539.25,505.13,530.18,494.34Z"/><text class="cls-9" transform="translate(490.04 804.28)">P<tspan class="cls-10" x="23.27" y="0">r</tspan><tspan x="39.93" y="0">ofil</tspan></text><rect class="cls-11" x="229.31" y="735.07" width="621.39" height="1.65" rx="0.57"/></svg>