<svg xmlns="http://www.w3.org/2000/svg" viewBox="0 0 1080 1080"><defs><style>.cls-1{isolation:isolate;}.cls-2{fill:#ccddea;}.cls-3{font-size:37.36px;font-family:Comfortaa-Bold, Comfortaa;font-weight:700;}.cls-10,.cls-3{fill:#082d4a;}.cls-4{letter-spacing:-0.11em;}.cls-5{letter-spacing:-0.04em;}.cls-6{letter-spacing:-0.02em;}.cls-7{fill:#2e3552;}.cls-8{fill:#025497;}.cls-9{fill:#95a5a6;}.cls-11{fill:#a5b5b6;}.cls-12{fill:#e0e0e0;}.cls-13{fill:silver;}.cls-14{fill:#b5c5c6;}.cls-15{fill:#e8f9fa;}.cls-16{fill:#deeff0;}.cls-17{fill:#213f47;}.cls-18{fill:#ff6000;}.cls-19{fill:#b24e12;}.cls-20{fill:#ad7c5e;}.cls-21{fill:#cd9c7d;}.cls-22{fill:#333;}.cls-23{fill:#ff8033;}.cls-24{fill:#fbcb43;}.cls-25{fill:#666;}.cls-26{fill:#4d4d4d;}.cls-27{fill:#1a1a1a;}.cls-28{fill:#401800;}.cls-29{fill:#ccc;}.cls-30{fill:gray;}.cls-31{fill:#404040;}.cls-32{fill:#999;}.cls-33{fill:#292929;}.cls-34{fill:#fff;}.cls-35{fill:#e8b679;}.cls-36{fill:#fcf7ea;}.cls-37{fill:#354546;}.cls-38{fill:#ffe1c0;}.cls-39{fill:#827047;}.cls-40{fill:#a68f5b;}.cls-41{mix-blend-mode:multiply;}</style></defs><g class="cls-1"><g id="Layer_1" data-name="Layer 1"><path class="cls-2" d="M815.18,735.55s77.07-82.75,13-172.33c-56.82-79.49-123.07-74.06-171.67-41.8-20.7,13.74-80.38,1.69-131.18-79.19C456.1,331.93,216,398.82,259.76,568.53c21.19,82.12-64.48,85.11-20.83,167.2Z"/><text class="cls-3" transform="translate(393.19 804.28)"><tspan class="cls-4">W</tspan><tspan x="30.93" y="0">e</tspan><tspan class="cls-5" x="54.13" y="0">r</tspan><tspan x="70.79" y="0">ehouse F</tspan><tspan class="cls-6" x="247.97" y="0">e</tspan><tspan x="270.42" y="0">e</tspan></text><rect class="cls-7" x="229.31" y="735.07" width="621.39" height="1.65" rx="0.57"/><rect class="cls-8" x="485.15" y="500.06" width="336.71" height="175.08"/><rect class="cls-9" x="493.11" y="501.35" width="328.75" height="17.2"/><rect class="cls-10" x="507.29" y="500.21" width="328.75" height="13.88"/><polygon class="cls-8" points="574.2 537.12 574.2 702.57 262.23 702.57 262.23 537.12 418.21 472.91 574.2 537.12"/><polygon class="cls-11" points="574.2 537.12 574.2 552.15 418.15 487.2 262.23 554.42 262.23 537.12 418.21 472.91 574.2 537.12"/><rect class="cls-10" x="310.2" y="565.48" width="216.01" height="137.1"/><rect class="cls-10" x="627.12" y="556.36" width="145.84" height="118.78"/><rect class="cls-12" x="306.64" y="565.48" width="223.1" height="36.4"/><rect class="cls-13" x="306.64" y="587.6" width="223.1" height="1.98"/><rect class="cls-13" x="306.64" y="577.2" width="223.1" height="1.98"/><rect class="cls-14" x="301.22" y="561.93" width="233.98" height="7.09"/><rect class="cls-15" x="301.22" y="558.39" width="233.98" height="7.09"/><rect class="cls-12" x="626.72" y="533.24" width="147.11" height="24.11"/><rect class="cls-13" x="626.72" y="555.37" width="147.11" height="1.98"/><rect class="cls-13" x="626.72" y="544.97" width="147.11" height="1.98"/><rect class="cls-14" x="623.15" y="529.7" width="154.28" height="7.09"/><rect class="cls-16" x="623.15" y="526.15" width="154.28" height="7.09"/><rect class="cls-17" x="465.06" y="643.61" width="10.38" height="10.38"/><rect class="cls-17" x="475.71" y="643.61" width="10.38" height="10.38"/><rect class="cls-17" x="486.37" y="643.61" width="10.38" height="10.38"/><rect class="cls-17" x="465.06" y="654.39" width="10.38" height="10.38"/><rect class="cls-17" x="475.71" y="654.39" width="10.38" height="10.38"/><rect class="cls-17" x="486.37" y="654.39" width="10.38" height="10.38"/><rect class="cls-17" x="465.06" y="622.05" width="10.38" height="10.38"/><rect class="cls-17" x="475.71" y="622.05" width="10.38" height="10.38"/><rect class="cls-17" x="486.37" y="622.05" width="10.38" height="10.38"/><rect class="cls-17" x="465.06" y="632.83" width="10.38" height="10.38"/><rect class="cls-17" x="475.71" y="632.83" width="10.38" height="10.38"/><rect class="cls-17" x="486.37" y="632.83" width="10.38" height="10.38"/><rect class="cls-17" x="465.06" y="665.82" width="10.38" height="10.38"/><rect class="cls-17" x="475.71" y="665.82" width="10.38" height="10.38"/><rect class="cls-17" x="486.37" y="665.82" width="10.38" height="10.38"/><rect class="cls-17" x="465.06" y="676.6" width="10.38" height="10.38"/><rect class="cls-17" x="475.71" y="676.6" width="10.38" height="10.38"/><rect class="cls-17" x="486.37" y="676.6" width="10.38" height="10.38"/><rect class="cls-17" x="314.9" y="638.65" width="15.38" height="13.32"/><rect class="cls-17" x="330.69" y="638.65" width="15.38" height="13.32"/><rect class="cls-17" x="346.48" y="638.65" width="15.38" height="13.32"/><rect class="cls-17" x="314.9" y="652.48" width="15.38" height="13.32"/><rect class="cls-17" x="330.69" y="652.48" width="15.38" height="13.32"/><rect class="cls-17" x="346.48" y="652.48" width="15.38" height="13.32"/><rect class="cls-17" x="314.9" y="610.99" width="15.38" height="13.32"/><rect class="cls-17" x="330.69" y="610.99" width="15.38" height="13.32"/><rect class="cls-17" x="346.48" y="610.99" width="15.38" height="13.32"/><rect class="cls-17" x="314.9" y="624.82" width="15.38" height="13.32"/><rect class="cls-17" x="330.69" y="624.82" width="15.38" height="13.32"/><rect class="cls-17" x="346.48" y="624.82" width="15.38" height="13.32"/><rect class="cls-17" x="314.9" y="667.15" width="15.38" height="13.32"/><rect class="cls-17" x="330.69" y="667.15" width="15.38" height="13.32"/><rect class="cls-17" x="346.48" y="667.15" width="15.38" height="13.32"/><rect class="cls-17" x="314.9" y="680.99" width="15.38" height="13.32"/><rect class="cls-17" x="330.69" y="680.99" width="15.38" height="13.32"/><rect class="cls-17" x="346.48" y="680.99" width="15.38" height="13.32"/><rect class="cls-18" x="345.35" y="526.48" width="139.8" height="26.01"/><rect class="cls-19" x="382.5" y="518.55" width="6.38" height="33.94"/><rect class="cls-19" x="439.94" y="518.55" width="6.38" height="33.94"/><rect class="cls-20" x="248.05" y="716.47" width="4.56" height="10.83"/><rect class="cls-20" x="271.23" y="716.47" width="4.56" height="10.83"/><rect class="cls-20" x="294.42" y="716.47" width="4.56" height="10.83"/><rect class="cls-20" x="317.61" y="716.47" width="4.56" height="10.83"/><rect class="cls-20" x="340.79" y="716.47" width="4.56" height="10.83"/><rect class="cls-21" x="243.96" y="714.47" width="105.48" height="4.01"/><rect class="cls-21" x="243.96" y="725.3" width="105.48" height="4.01"/><rect class="cls-20" x="581.66" y="682.99" width="2.66" height="6.33"/><rect class="cls-20" x="595.2" y="682.99" width="2.66" height="6.33"/><rect class="cls-20" x="608.75" y="682.99" width="2.66" height="6.33"/><rect class="cls-20" x="622.29" y="682.99" width="2.67" height="6.33"/><rect class="cls-20" x="635.83" y="682.99" width="2.67" height="6.33"/><rect class="cls-21" x="579.27" y="681.82" width="61.61" height="2.34"/><rect class="cls-21" x="579.27" y="688.15" width="61.61" height="2.34"/><rect class="cls-19" x="648.46" y="567.62" width="103.26" height="114.22" rx="2.81"/><path class="cls-18" d="M736.45,595.69h-.06l-2.06-11.33a4.25,4.25,0,0,0-4.26-4.25H670.2a4.25,4.25,0,0,0-4.25,4.25l-2.06,11.33h-.07a4.25,4.25,0,0,0-4.25,4.26V645.3a4.25,4.25,0,0,0,4.25,4.25h72.63a4.26,4.26,0,0,0,4.26-4.25V600A4.26,4.26,0,0,0,736.45,595.69Z"/><rect class="cls-22" x="662.58" y="603.49" width="75.11" height="25.86" rx="4.25"/><path class="cls-23" d="M714.93,583a1.51,1.51,0,0,1-1.51,1.51H686.85a1.51,1.51,0,0,1-1.5-1.51h0a1.5,1.5,0,0,1,1.5-1.5h26.57a1.5,1.5,0,0,1,1.51,1.5Z"/><path class="cls-24" d="M681.92,599.86a1.68,1.68,0,0,1-1.68,1.68h-6.49a1.68,1.68,0,0,1-1.68-1.68h0a1.68,1.68,0,0,1,1.68-1.68h6.49a1.68,1.68,0,0,1,1.68,1.68Z"/><path class="cls-24" d="M705.07,599.86a1.69,1.69,0,0,1-1.69,1.68h-6.49a1.68,1.68,0,0,1-1.68-1.68h0a1.68,1.68,0,0,1,1.68-1.68h6.49a1.69,1.69,0,0,1,1.69,1.68Z"/><path class="cls-24" d="M728.21,599.86a1.68,1.68,0,0,1-1.68,1.68H720a1.68,1.68,0,0,1-1.68-1.68h0a1.68,1.68,0,0,1,1.68-1.68h6.49a1.68,1.68,0,0,1,1.68,1.68Z"/><path class="cls-25" d="M668.75,627.2a3.22,3.22,0,0,1-3.22,3.21h0a3.22,3.22,0,0,1-3.22-3.21V611a3.22,3.22,0,0,1,3.22-3.22h0a3.22,3.22,0,0,1,3.22,3.22Z"/><path class="cls-25" d="M737.35,627.2a3.22,3.22,0,0,1-3.22,3.21h0a3.22,3.22,0,0,1-3.22-3.21V611a3.22,3.22,0,0,1,3.22-3.22h0a3.22,3.22,0,0,1,3.22,3.22Z"/><path class="cls-26" d="M718,642a11.54,11.54,0,1,1,11.33-11.53A11.44,11.44,0,0,1,718,642ZM718,621a9.41,9.41,0,1,0,9.2,9.41A9.32,9.32,0,0,0,718,621Z"/><path class="cls-18" d="M742.68,648.7l-.16,0-.17-.08a4.33,4.33,0,0,0,.15-1.08V630.06a4.25,4.25,0,0,0-4.25-4.25H662a4.25,4.25,0,0,0-4.25,4.25v17.45a4.12,4.12,0,0,0,.09.86,5.6,5.6,0,0,0-.7.33c-3.65.77-6.5,6.63-6.5,13.78a26.15,26.15,0,0,0,.19,3.12c.09.72.19,1.41.34,2.07a4.24,4.24,0,0,0,3.85,2.42h89.76a4.24,4.24,0,0,0,3.85-2.42c.06-.28.11-.57.16-.85a3.5,3.5,0,0,0,.07-.45c0-.25.07-.5.11-.77a26.15,26.15,0,0,0,.19-3.12C749.19,655.33,746.34,649.47,742.68,648.7Z"/><path class="cls-27" d="M668.75,706.23a4.25,4.25,0,0,1-4.25,4.26h-7.09a4.25,4.25,0,0,1-4.25-4.26v-12a4.25,4.25,0,0,1,4.25-4.25h7.09a4.25,4.25,0,0,1,4.25,4.25Z"/><rect class="cls-27" x="731.1" y="689.94" width="15.59" height="20.55" rx="4.25"/><path class="cls-28" d="M712.36,664.25a1.78,1.78,0,0,1-1.78,1.78H689.69a1.78,1.78,0,0,1-1.78-1.78h0a1.78,1.78,0,0,1,1.78-1.77h20.89a1.77,1.77,0,0,1,1.78,1.77Z"/><path class="cls-28" d="M721.48,649.3a3.36,3.36,0,0,1-3.35,3.35h-36a3.35,3.35,0,0,1-3.35-3.35l-2.13-12A3.35,3.35,0,0,1,680,634h40.23a3.35,3.35,0,0,1,3.35,3.35Z"/><path class="cls-29" d="M681.69,664.29a2.48,2.48,0,0,1-2.36,1.74H658.16a2.47,2.47,0,0,1-2.39-1.92,10,10,0,0,1,9.91-8.86C669.59,655.25,680.62,658.35,681.69,664.29Z"/><path class="cls-23" d="M681.79,665.2a2.47,2.47,0,0,1-2.46,2.47H658.16a2.46,2.46,0,0,1-2.45-2.47,10.09,10.09,0,0,1,.06-1.09,10,10,0,0,1,9.91-8.86c3.91,0,14.94,3.1,16,9l.06.44A3.73,3.73,0,0,1,681.79,665.2Z"/><path class="cls-29" d="M719.59,664.29A2.46,2.46,0,0,0,722,666h21.17a2.45,2.45,0,0,0,2.38-1.92,10,10,0,0,0-9.9-8.86C731.69,655.25,720.65,658.35,719.59,664.29Z"/><path class="cls-23" d="M719.48,665.2a2.48,2.48,0,0,0,2.47,2.47h21.17a2.46,2.46,0,0,0,2.44-2.47,8.05,8.05,0,0,0-.06-1.09,10,10,0,0,0-9.9-8.86c-3.91,0-15,3.1-16,9,0,.14-.05.3-.07.44A3.73,3.73,0,0,0,719.48,665.2Z"/><rect class="cls-22" x="649.83" y="669.79" width="100.62" height="27.23" rx="4.25"/><path class="cls-30" d="M748.67,683v1.41a4.23,4.23,0,0,1-4.25,4.25H655.86a4.25,4.25,0,0,1-4.26-4.25V683a4.25,4.25,0,0,1,4.26-4.25h88.56A4.23,4.23,0,0,1,748.67,683Z"/><rect class="cls-31" x="641.47" y="617.84" width="11.69" height="11.69" rx="4.25"/><path class="cls-31" d="M663,638.21a1,1,0,0,1-1-.73l-3.39-10.09a.91.91,0,0,1,0-.33,2.32,2.32,0,0,0-2.31-2.31h-6.85a1.07,1.07,0,1,1,0-2.13h6.85a4.44,4.44,0,0,1,4.43,4.25l3.33,9.94a1.05,1.05,0,0,1-.67,1.34A1,1,0,0,1,663,638.21Z"/><rect class="cls-31" x="747.01" y="617.84" width="11.69" height="11.69" rx="4.25"/><path class="cls-31" d="M737.13,638.21a1,1,0,0,1-.34-.06,1.05,1.05,0,0,1-.67-1.34l3.33-9.94a4.45,4.45,0,0,1,4.44-4.25h6.84a1.07,1.07,0,0,1,0,2.13h-6.84a2.32,2.32,0,0,0-2.32,2.31.91.91,0,0,1-.05.33l-3.39,10.09A1,1,0,0,1,737.13,638.21Z"/><path class="cls-32" d="M668.8,683.41a2.75,2.75,0,1,1-2.75-2.75A2.75,2.75,0,0,1,668.8,683.41Z"/><path class="cls-25" d="M666.05,687.22a3.81,3.81,0,1,1,3.81-3.81A3.81,3.81,0,0,1,666.05,687.22Z"/><path class="cls-32" d="M737,683.41a2.75,2.75,0,1,1-2.75-2.75A2.75,2.75,0,0,1,737,683.41Z"/><path class="cls-25" d="M734.22,687.22a3.81,3.81,0,1,1,3.81-3.81A3.82,3.82,0,0,1,734.22,687.22Z"/><path class="cls-33" d="M727.37,678.78H672.89a3.17,3.17,0,0,0,0,.53c0,2.28,4,4.11,6.23,4.11h12a2.12,2.12,0,0,0-.09.57,2,2,0,0,0,2,2h14.25a2,2,0,0,0,2-2,2.12,2.12,0,0,0-.09-.57h12c2.25,0,6.2-1.83,6.2-4.11A2.39,2.39,0,0,0,727.37,678.78Z"/><polygon class="cls-10" points="250.7 552.49 243.96 536.87 418.04 461.81 592.46 534.4 585.92 550.11 418.17 480.29 250.7 552.49"/><rect class="cls-14" x="724.03" y="488.19" width="6.52" height="11.87"/><rect class="cls-14" x="556.24" y="488.19" width="6.52" height="11.87"/><rect class="cls-14" x="640.14" y="488.19" width="6.52" height="11.87"/><rect class="cls-14" x="807.93" y="488.19" width="6.52" height="11.87"/><rect class="cls-18" x="539.95" y="455.58" width="290.79" height="36.87"/><path class="cls-34" d="M619.1,484h-3.6l-3.43-12.07c-.15-.53-.34-1.29-.56-2.28s-.35-1.68-.4-2.07c-.09.59-.24,1.36-.45,2.3s-.38,1.64-.52,2.1l-3.35,12h-3.6l-2.62-10.13-2.66-10.11h3.38l2.9,11.8a50.05,50.05,0,0,1,1,5c.11-.78.26-1.66.46-2.63s.39-1.75.56-2.36l3.29-11.82h3.28l3.38,11.88a42.61,42.61,0,0,1,1,4.93,35.88,35.88,0,0,1,1-5L621,463.71h3.35Z"/><path class="cls-34" d="M639.81,484l-2-5.62h-7.73l-2,5.62h-3.49l7.58-20.32h3.6L643.32,484Zm-2.9-8.47L635,470c-.14-.37-.33-1-.58-1.75s-.41-1.37-.51-1.74a30.93,30.93,0,0,1-1.09,3.72L631,475.48Z"/><path class="cls-34" d="M649.31,475.87V484H646V463.71h5.72q3.91,0,5.8,1.47a5.28,5.28,0,0,1,1.88,4.43q0,3.78-3.93,5.38l5.72,9h-3.77l-4.85-8.08Zm0-2.74h2.29a5.24,5.24,0,0,0,3.35-.86,3.1,3.1,0,0,0,1-2.55,2.74,2.74,0,0,0-1.12-2.47,6.23,6.23,0,0,0-3.38-.74h-2.18Z"/><path class="cls-34" d="M675.57,484H664.12V463.71h11.45v2.8h-8.14V472h7.63v2.77h-7.63v6.35h8.14Z"/><path class="cls-34" d="M696.44,484h-3.32v-9.12h-9.34V484h-3.3V463.71h3.3V472h9.34v-8.28h3.32Z"/><path class="cls-34" d="M719.75,473.8c0,3.3-.83,5.86-2.47,7.69a10.4,10.4,0,0,1-14,0q-2.46-2.72-2.46-7.73t2.48-7.7a9.12,9.12,0,0,1,7.06-2.69,8.91,8.91,0,0,1,7,2.73C718.92,467.94,719.75,470.5,719.75,473.8Zm-15.46,0a9.09,9.09,0,0,0,1.51,5.67,6.14,6.14,0,0,0,8.93,0,11.52,11.52,0,0,0,0-11.35,5.26,5.26,0,0,0-4.43-1.92,5.38,5.38,0,0,0-4.5,1.92A9,9,0,0,0,704.29,473.8Z"/><path class="cls-34" d="M740,463.71v13.1a7.84,7.84,0,0,1-1,3.93,6.38,6.38,0,0,1-2.78,2.58,9.58,9.58,0,0,1-4.36.91,8.12,8.12,0,0,1-5.85-2,7.21,7.21,0,0,1-2.1-5.49v-13h3.33v12.81a5.16,5.16,0,0,0,1.16,3.7,4.83,4.83,0,0,0,3.58,1.19q4.68,0,4.68-4.92V463.71Z"/><path class="cls-34" d="M756.82,478.46a5.08,5.08,0,0,1-2,4.23,8.47,8.47,0,0,1-5.39,1.54,12.86,12.86,0,0,1-5.62-1.06V480a15.45,15.45,0,0,0,2.94,1,12.46,12.46,0,0,0,2.9.37,4.66,4.66,0,0,0,2.9-.74,2.46,2.46,0,0,0,.94-2,2.54,2.54,0,0,0-.86-1.93,13.13,13.13,0,0,0-3.55-1.87,9.28,9.28,0,0,1-3.9-2.56,5.4,5.4,0,0,1-1.14-3.46,4.85,4.85,0,0,1,1.8-4,7.49,7.49,0,0,1,4.84-1.45,14.1,14.1,0,0,1,5.78,1.27l-1,2.7a12.73,12.73,0,0,0-4.82-1.13,3.71,3.71,0,0,0-2.43.69,2.29,2.29,0,0,0-.83,1.85,2.66,2.66,0,0,0,.33,1.36,3.46,3.46,0,0,0,1.09,1.06,19.56,19.56,0,0,0,2.74,1.31,15.19,15.19,0,0,1,3.27,1.73,5.13,5.13,0,0,1,1.52,1.81A5.4,5.4,0,0,1,756.82,478.46Z"/><path class="cls-34" d="M772.19,484H760.74V463.71h11.45v2.8h-8.14V472h7.63v2.77h-7.63v6.35h8.14Z"/><rect class="cls-35" x="586.05" y="652.8" width="46.59" height="28.7"/><rect class="cls-36" x="588.11" y="670.5" width="20" height="9"/><rect class="cls-37" x="589.19" y="671.16" width="1.18" height="7.67"/><rect class="cls-37" x="591.1" y="671.16" width="0.4" height="7.67"/><rect class="cls-37" x="604.07" y="671.16" width="0.4" height="7.67"/><rect class="cls-37" x="593" y="671.16" width="1.18" height="7.67"/><rect class="cls-37" x="594.9" y="671.16" width="0.59" height="7.67"/><rect class="cls-37" x="592" y="671.16" width="0.59" height="7.67"/><rect class="cls-37" x="596.01" y="671.16" width="1.98" height="7.67"/><rect class="cls-37" x="602.49" y="671.16" width="1.19" height="7.67"/><rect class="cls-37" x="599.78" y="671.16" width="1.18" height="7.67"/><rect class="cls-37" x="598.71" y="671.16" width="0.59" height="7.67"/><rect class="cls-37" x="601.35" y="671.16" width="0.59" height="7.67"/><rect class="cls-37" x="604.75" y="671.16" width="1.95" height="7.67"/><rect class="cls-38" x="609.35" y="652.8" width="1.46" height="28.7"/><rect class="cls-38" x="586.05" y="652.8" width="46.59" height="6.58"/><rect class="cls-18" x="615.88" y="672.54" width="1.24" height="4.97"/><polygon class="cls-18" points="614.65 673.08 616.5 669.87 618.35 673.08 614.65 673.08"/><rect class="cls-18" x="619.98" y="672.54" width="1.24" height="4.97"/><polygon class="cls-18" points="618.75 673.08 620.6 669.87 622.45 673.08 618.75 673.08"/><rect class="cls-18" x="614.65" y="678.05" width="7.8" height="0.78"/><rect class="cls-18" x="593.59" y="652.8" width="5.12" height="12.64"/><rect class="cls-18" x="619.03" y="652.8" width="5.12" height="12.64"/><path class="cls-17" d="M457.78,666.94H437.59v27h-1.45V675.12a.79.79,0,0,0-.79-.8h-.77a.78.78,0,0,0-.34.09V662.56a1.15,1.15,0,0,0-1.14-1.15h-4.35a1.15,1.15,0,0,0-1.14,1.15v16.23h-.95l-5.07-20a2.2,2.2,0,0,0-2.24-2H402.21A2.2,2.2,0,0,0,400,659v14l-.12,0H381.58a1.06,1.06,0,0,0-1.06,1.06v2a1.07,1.07,0,0,0,1.06,1.06h1.49a4.08,4.08,0,0,0-.12.93v14.52a3.91,3.91,0,0,0,3.91,3.91h.86c0,.07,0,.14,0,.21a5.74,5.74,0,0,0,10.86,2.63,1.57,1.57,0,0,0,1.07,1.33,1.49,1.49,0,0,0,.5.08,1.6,1.6,0,0,0,1.31-.69,3.42,3.42,0,0,0,.46,0h14.82a3.87,3.87,0,0,0,1.65-.37,1.57,1.57,0,0,0,1.48,1,1.49,1.49,0,0,0,.5-.08,1.56,1.56,0,0,0,1.07-1.49,5.75,5.75,0,0,0,10.95-2.47A5.65,5.65,0,0,0,431.1,693a1.61,1.61,0,0,0,1.68-.36,1.59,1.59,0,0,0,.16-2h.16a1.07,1.07,0,0,0,.69-.26v4.75a.8.8,0,0,0,.27.59,1.05,1.05,0,0,0,.79.38H454.4a1.07,1.07,0,0,0,1.07-1.07v0a1.17,1.17,0,0,0-.09-.42h6.91V666.94Zm-55.57-8h17.14c.07,0,.11,0,.12,0a1,1,0,0,0,0,.25l5,19.6a2.35,2.35,0,0,0-.44.17l-2.68-6a.83.83,0,0,0,.28-1l-.11-.26a.84.84,0,0,0-1.1-.42l-4.06,1.83a.84.84,0,0,0-.42,1.1l.12.26a.84.84,0,0,0,1.1.41l3.23-1.45,2.82,6.28a1.86,1.86,0,0,0-.27,1V686a2.05,2.05,0,0,0,.22.89h-4.87a3.24,3.24,0,0,0,.69-2v-.82a3.3,3.3,0,0,0-3-3.27,2.16,2.16,0,0,0,.64-1.52,2.12,2.12,0,0,0-2.12-2.13h-4.76a2.13,2.13,0,0,0-.91.21l-2.66-5.76a1.27,1.27,0,1,0-2.3,1.06l2.71,5.88a1.26,1.26,0,0,0,1,.71v0a2.1,2.1,0,0,0,.61,1.49h-3.55a3.31,3.31,0,0,0-2.55,1.23V659S402.13,659,402.21,659Z"/><rect class="cls-39" x="479.76" y="640.75" width="13.76" height="13.76"/><rect class="cls-39" x="493.89" y="640.75" width="13.76" height="13.76"/><rect class="cls-39" x="508.02" y="640.75" width="13.76" height="13.76"/><rect class="cls-39" x="479.76" y="655.05" width="13.76" height="13.76"/><rect class="cls-39" x="493.89" y="655.05" width="13.76" height="13.76"/><rect class="cls-39" x="508.02" y="655.05" width="13.76" height="13.76"/><rect class="cls-39" x="479.76" y="612.17" width="13.76" height="13.76"/><rect class="cls-39" x="493.89" y="612.17" width="13.76" height="13.76"/><rect class="cls-39" x="508.02" y="612.17" width="13.76" height="13.76"/><rect class="cls-39" x="479.76" y="626.46" width="13.76" height="13.76"/><rect class="cls-39" x="493.89" y="626.46" width="13.76" height="13.76"/><rect class="cls-39" x="508.02" y="626.46" width="13.76" height="13.76"/><rect class="cls-39" x="479.76" y="670.21" width="13.76" height="13.76"/><rect class="cls-39" x="493.89" y="670.21" width="13.76" height="13.76"/><rect class="cls-39" x="508.02" y="670.21" width="13.76" height="13.76"/><rect class="cls-39" x="479.76" y="684.51" width="13.76" height="13.76"/><rect class="cls-39" x="493.89" y="684.51" width="13.76" height="13.76"/><rect class="cls-39" x="508.02" y="684.51" width="13.76" height="13.76"/><rect class="cls-20" x="468.02" y="694.39" width="2.91" height="6.91"/><rect class="cls-20" x="482.8" y="694.39" width="2.91" height="6.91"/><rect class="cls-20" x="497.58" y="694.39" width="2.91" height="6.91"/><rect class="cls-20" x="512.36" y="694.39" width="2.91" height="6.91"/><rect class="cls-20" x="527.14" y="694.39" width="2.91" height="6.91"/><rect class="cls-35" x="471.47" y="655.57" width="18.41" height="18.41"/><rect class="cls-35" x="490.37" y="655.57" width="18.41" height="18.41"/><rect class="cls-35" x="509.27" y="655.57" width="18.41" height="18.41"/><rect class="cls-35" x="471.47" y="674.7" width="18.41" height="18.41"/><rect class="cls-35" x="490.37" y="674.7" width="18.41" height="18.41"/><rect class="cls-35" x="509.27" y="674.7" width="18.41" height="18.41"/><rect class="cls-21" x="465.42" y="693.11" width="67.23" height="2.55"/><rect class="cls-21" x="465.42" y="700.02" width="67.23" height="2.56"/><rect class="cls-40" x="317.25" y="665.13" width="18.41" height="18.41"/><rect class="cls-40" x="336.15" y="665.13" width="18.41" height="18.41"/><rect class="cls-40" x="355.04" y="665.13" width="18.41" height="18.41"/><rect class="cls-40" x="317.25" y="684.26" width="18.41" height="18.41"/><rect class="cls-40" x="336.15" y="684.26" width="18.41" height="18.41"/><rect class="cls-40" x="355.04" y="684.26" width="18.41" height="18.41"/><rect class="cls-40" x="317.25" y="626.88" width="18.41" height="18.41"/><rect class="cls-40" x="336.15" y="626.88" width="18.41" height="18.41"/><rect class="cls-40" x="355.04" y="626.88" width="18.41" height="18.41"/><rect class="cls-40" x="317.25" y="646.01" width="18.41" height="18.41"/><rect class="cls-40" x="336.15" y="646.01" width="18.41" height="18.41"/><rect class="cls-40" x="355.04" y="646.01" width="18.41" height="18.41"/><rect class="cls-35" x="254.19" y="682.31" width="28.3" height="31.69"/><rect class="cls-36" x="255.45" y="707.32" width="12.15" height="5.47"/><rect class="cls-37" x="256.35" y="707.72" width="10.39" height="4.66"/><rect class="cls-38" x="268.35" y="682.31" width="0.88" height="31.69"/><rect class="cls-38" x="254.19" y="682.31" width="28.3" height="4"/><rect class="cls-18" x="258.77" y="682.31" width="3.11" height="7.68"/><g class="cls-41"><rect class="cls-18" x="274.23" y="682.31" width="3.11" height="7.68"/></g><rect class="cls-35" x="285.77" y="682.31" width="28.3" height="31.69"/><rect class="cls-36" x="287.02" y="707.32" width="12.15" height="5.47"/><rect class="cls-37" x="287.93" y="707.72" width="10.39" height="4.66"/><rect class="cls-38" x="299.92" y="682.31" width="0.89" height="31.69"/><rect class="cls-38" x="285.77" y="682.31" width="28.3" height="4"/><rect class="cls-18" x="290.35" y="682.31" width="3.11" height="7.68"/><rect class="cls-18" x="305.8" y="682.31" width="3.11" height="7.68"/><rect class="cls-35" x="316.79" y="682.31" width="28.3" height="31.69"/><rect class="cls-36" x="318.04" y="707.32" width="12.15" height="5.47"/><rect class="cls-37" x="318.95" y="707.72" width="10.39" height="4.66"/><rect class="cls-38" x="330.94" y="682.31" width="0.88" height="31.69"/><rect class="cls-38" x="316.79" y="682.31" width="28.3" height="4"/><g class="cls-41"><rect class="cls-18" x="321.37" y="682.31" width="3.11" height="7.68"/></g><rect class="cls-18" x="336.82" y="682.31" width="3.11" height="7.68"/><rect class="cls-35" x="254.19" y="650.19" width="28.3" height="31.69"/><rect class="cls-36" x="255.45" y="675.19" width="12.15" height="5.47"/><rect class="cls-37" x="256.35" y="675.59" width="10.39" height="4.66"/><rect class="cls-38" x="268.35" y="650.19" width="0.88" height="31.69"/><rect class="cls-38" x="254.19" y="650.19" width="28.3" height="4"/><rect class="cls-18" x="258.77" y="650.19" width="3.11" height="7.67"/><rect class="cls-18" x="274.23" y="650.19" width="3.11" height="7.67"/><rect class="cls-35" x="285.77" y="650.19" width="28.3" height="31.69"/><rect class="cls-36" x="287.02" y="675.19" width="12.15" height="5.47"/><rect class="cls-37" x="287.93" y="675.59" width="10.39" height="4.66"/><rect class="cls-38" x="299.92" y="650.19" width="0.89" height="31.69"/><rect class="cls-38" x="285.77" y="650.19" width="28.3" height="4"/><g class="cls-41"><rect class="cls-18" x="290.35" y="650.19" width="3.11" height="7.67"/></g><rect class="cls-18" x="305.8" y="650.19" width="3.11" height="7.67"/><rect class="cls-35" x="316.79" y="650.19" width="28.3" height="31.69"/><rect class="cls-36" x="318.04" y="675.19" width="12.15" height="5.47"/><rect class="cls-37" x="318.95" y="675.59" width="10.39" height="4.66"/><rect class="cls-38" x="330.94" y="650.19" width="0.88" height="31.69"/><rect class="cls-38" x="316.79" y="650.19" width="28.3" height="4"/><rect class="cls-18" x="321.37" y="650.19" width="3.11" height="7.67"/><g class="cls-41"><rect class="cls-18" x="336.82" y="650.19" width="3.11" height="7.67"/></g></g></g></svg>